/* XPM */
static char * min_foc_xpm[] = {
"22 22 6 1",
" 	c None",
".	c #C3C7CB",
"+	c #000000",
"@	c #0000AA",
"#	c #FFFFFF",
"$	c #868A8E",
"......................",
"......................",
"++++++++++++++++++++++",
"@@@+#################$",
"@@@+#...............$$",
"@@@+#...............$$",
"@@@+#...............$$",
"@@@+#...............$$",
"@@@+#...............$$",
"@@@+#...............$$",
"@@@+#...............$$",
"@@@+#....+++++++....$$",
"@@@+#.....+++++.....$$",
"@@@+#......+++......$$",
"@@@+#.......+.......$$",
"@@@+#...............$$",
"@@@+#...............$$",
"@@@+#...............$$",
"@@@+#...............$$",
"@@@+#...............$$",
"@@@+#$$$$$$$$$$$$$$$$$",
"@@@+$$$$$$$$$$$$$$$$$$"};
