/* XPM */
static char * gimp_xpm[] = {
"32 32 307 2",
"  	c None",
". 	c #FCFCFC",
"+ 	c #F5F4F2",
"@ 	c #EEEBE8",
"# 	c #FCFDFD",
"$ 	c #B09F8E",
"% 	c #A69381",
"& 	c #EEE8E1",
"* 	c #FFFFFF",
"= 	c #F1EEEC",
"- 	c #836A50",
"; 	c #98836F",
"> 	c #E3D9CD",
", 	c #EAE4DB",
"' 	c #FEFEFE",
") 	c #97816C",
"! 	c #866D56",
"~ 	c #8B735E",
"{ 	c #E4DCD1",
"] 	c #B59C7B",
"^ 	c #F4F2F0",
"/ 	c #97816B",
"( 	c #876D56",
"_ 	c #846B55",
": 	c #816852",
"< 	c #E4DBD0",
"[ 	c #A78A64",
"} 	c #C4B29A",
"| 	c #CCC0B5",
"1 	c #876E55",
"2 	c #876E56",
"3 	c #856B55",
"4 	c #826954",
"5 	c #7C624C",
"6 	c #E3DBCF",
"7 	c #A48761",
"8 	c #BBA68B",
"9 	c #CBBBA8",
"0 	c #EBE6DF",
"a 	c #FCFBFC",
"b 	c #E5DFD9",
"c 	c #C0B1A3",
"d 	c #8E745B",
"e 	c #886F56",
"f 	c #856C55",
"g 	c #836A54",
"h 	c #806853",
"i 	c #775D48",
"j 	c #EBE5DE",
"k 	c #F3F3F2",
"l 	c #F3F5F6",
"m 	c #F1F0EE",
"n 	c #AD977D",
"o 	c #E7E2DC",
"p 	c #F5F6F6",
"q 	c #F1F3F3",
"r 	c #F3F4F4",
"s 	c #E4DFDA",
"t 	c #8F745A",
"u 	c #8C7259",
"v 	c #8A7058",
"w 	c #816853",
"x 	c #7E6652",
"y 	c #785F4B",
"z 	c #DFE2E2",
"A 	c #BEC3C3",
"B 	c #EAECEC",
"C 	c #F9FAFA",
"D 	c #ECEEEE",
"E 	c #E5E8E8",
"F 	c #BFC4C4",
"G 	c #C7CBCB",
"H 	c #F5F5F3",
"I 	c #F5F6F7",
"J 	c #E9EBEB",
"K 	c #ABB1B1",
"L 	c #DFE1E1",
"M 	c #D5CEC7",
"N 	c #876D54",
"O 	c #886E56",
"P 	c #866C55",
"Q 	c #7F6652",
"R 	c #7C6450",
"S 	c #7D6655",
"T 	c #919999",
"U 	c #223434",
"V 	c #243434",
"W 	c #162626",
"X 	c #757D7D",
"Y 	c #FBFCFC",
"Z 	c #E6E9E9",
"` 	c #B6BCBC",
" .	c #162727",
"..	c #142626",
"+.	c #D0D3D3",
"@.	c #EDEFEF",
"#.	c #E7EAEA",
"$.	c #3F4C4C",
"%.	c #203030",
"&.	c #152424",
"*.	c #E8EAEB",
"=.	c #745C44",
"-.	c #866D55",
";.	c #846A54",
">.	c #7D6451",
",.	c #7A6250",
"'.	c #897566",
").	c #E3E5E5",
"!.	c #213232",
"~.	c #314242",
"{.	c #2A3B3B",
"].	c #223232",
"^.	c #192727",
"/.	c #5E6767",
"(.	c #F0F3F3",
"_.	c #BCC1C1",
":.	c #152626",
"<.	c #142525",
"[.	c #D2D4D5",
"}.	c #ECEFEF",
"|.	c #2E3F3F",
"1.	c #202F2F",
"2.	c #B9BEBE",
"3.	c #725A44",
"4.	c #79624E",
"5.	c #826953",
"6.	c #7F6752",
"7.	c #7D6551",
"8.	c #7B6250",
"9.	c #78604E",
"0.	c #9D8C81",
"a.	c #BBC0C0",
"b.	c #243535",
"c.	c #2B3C3C",
"d.	c #273737",
"e.	c #213030",
"f.	c #1A2828",
"g.	c #101E1E",
"h.	c #B2B7B7",
"i.	c #EEF0F0",
"j.	c #C7CCCC",
"k.	c #D4D8D9",
"l.	c #D2CBC2",
"m.	c #F7F9F9",
"n.	c #838B8B",
"o.	c #152525",
"p.	c #455151",
"q.	c #D3CDC6",
"r.	c #765E49",
"s.	c #78614C",
"t.	c #78604D",
"u.	c #7B6350",
"v.	c #79614F",
"w.	c #765F4D",
"x.	c #B8AEA7",
"y.	c #D4D7D7",
"z.	c #1A2A2A",
"A.	c #223131",
"B.	c #1D2C2C",
"C.	c #172626",
"D.	c #172525",
"E.	c #3B4441",
"F.	c #D0C7BD",
"G.	c #CCC3BA",
"H.	c #9C8B79",
"I.	c #775F46",
"J.	c #C4BAB1",
"K.	c #FBFEFF",
"L.	c #EDEAE7",
"M.	c #7E6754",
"N.	c #78614D",
"O.	c #77604D",
"P.	c #775F4C",
"Q.	c #755F4D",
"R.	c #775F4E",
"S.	c #715847",
"T.	c #D8D3D0",
"U.	c #374444",
"V.	c #1B2A2A",
"W.	c #182626",
"X.	c #142323",
"Y.	c #927658",
"Z.	c #7B654C",
"`.	c #7E674F",
" +	c #7D664F",
".+	c #7A634B",
"++	c #86715C",
"@+	c #A09181",
"#+	c #93806F",
"$+	c #745C46",
"%+	c #7B644F",
"&+	c #514134",
"*+	c #7B634F",
"=+	c #765E4C",
"-+	c #755D4C",
";+	c #745D4C",
">+	c #755D4D",
",+	c #6D5748",
"'+	c #0E1D1D",
")+	c #1C2928",
"!+	c #9C8061",
"~+	c #897056",
"{+	c #7C654F",
"]+	c #7B654E",
"^+	c #7A634E",
"/+	c #79624D",
"(+	c #181515",
"_+	c #211B18",
":+	c #735D4C",
"<+	c #735B4B",
"[+	c #A89D96",
"}+	c #B4B9B9",
"|+	c #0D1C1C",
"1+	c #132223",
"2+	c #595243",
"3+	c #947A5D",
"4+	c #92775C",
"5+	c #7C654E",
"6+	c #77614C",
"7+	c #725C48",
"8+	c #6E5946",
"9+	c #62503F",
"0+	c #493A2F",
"a+	c #110F0D",
"b+	c #C17E29",
"c+	c #A86D1B",
"d+	c #916E48",
"e+	c #6D594C",
"f+	c #725B4B",
"g+	c #664F41",
"h+	c #F5F4F3",
"i+	c #E5E7E7",
"j+	c #818989",
"k+	c #666F6F",
"l+	c #594E3D",
"m+	c #987C5F",
"n+	c #91775B",
"o+	c #8F755A",
"p+	c #8D7359",
"q+	c #846B54",
"r+	c #7C644E",
"s+	c #75604B",
"t+	c #695543",
"u+	c #5C4B3B",
"v+	c #584739",
"w+	c #6B5645",
"x+	c #735E4E",
"y+	c #B67937",
"z+	c #F69927",
"A+	c #DB8F31",
"B+	c #8B653E",
"C+	c #BFBCBC",
"D+	c #F3F2F0",
"E+	c #9F9181",
"F+	c #7A6249",
"G+	c #8C7158",
"H+	c #896F57",
"I+	c #816952",
"J+	c #775F4D",
"K+	c #765E4D",
"L+	c #715B4C",
"M+	c #916741",
"N+	c #DA8124",
"O+	c #EB8F26",
"P+	c #F4AE5A",
"Q+	c #E1E5E5",
"R+	c #EAE7E4",
"S+	c #A4978B",
"T+	c #725C46",
"U+	c #7A624C",
"V+	c #79614E",
"W+	c #6B5545",
"X+	c #645144",
"Y+	c #C6BFBA",
"Z+	c #E3AA75",
"`+	c #B68856",
" @	c #99A6A7",
".@	c #B5BCBC",
"+@	c #D1CBC7",
"@@	c #A59A90",
"#@	c #847365",
"$@	c #6B5747",
"%@	c #5E4939",
"&@	c #5F493A",
"*@	c #6B584A",
"=@	c #8A7D73",
"-@	c #C0B9B5",
";@	c #C1CACB",
">@	c #909E9E",
",@	c #7F8F8F",
"'@	c #95A1A1",
")@	c #778282",
"!@	c #6E7979",
"~@	c #CCCFCF",
"{@	c #F4F6F6",
"]@	c #A0AAAA",
"^@	c #293A3A",
"/@	c #172727",
"(@	c #E7E8E8",
"_@	c #E0E2E2",
":@	c #233636",
"<@	c #213131",
"[@	c #7E8686",
"}@	c #4F5C5C",
"|@	c #132323",
"1@	c #243232",
"2@	c #D5D7D7",
"                                                                ",
"                                                                ",
"                                                                ",
"            .                                                   ",
"            .                                   + @             ",
"            #                                   $ %             ",
"            & *                               = - ;             ",
"            > ,                             ' ) ! ~ *           ",
"            { ] *                         ^ / ( _ : *           ",
"            < [ } *                   * | 1 2 3 4 5 *           ",
"            6 7 8 9 0 *   . . . a b c d e 2 f g h i *           ",
"            j k l l m n o p q r s t u v 2 f g w x y *           ",
"    z A B * C D E F G H I J E K L M N O P g w Q R S *           ",
"  T U V W X Y Z `  ...+.@.#.$.%.&.*.=.-.;.w Q >.,.'.            ",
").!.~.{.].^./.(._.:.<.[.@.}.W |.1.2.3.4.5.6.7.8.9.0.            ",
"a.b.c.d.e.f.g.h.i.j.k.l.m.D n.o.p.q.r.s.t.7.u.v.w.x.            ",
"y.z.V A.B.C.D.E.F.G.H.I.J.K.m.* L.M.N.O.P.Q.v.R.S.T.            ",
"* U.B.V.W.D.D.X.Y.Z.`. +.+++@+#+$+%+&+*+=+-+;+>+,+*             ",
"  +.'+D.D.D.D.)+!+~+ + +{+]+^+^+^+/+(+_+9.:+<+<+[+              ",
"    }+|+D.D.1+2+3+4+1 5+6+7+8+9+0+a+b+c+d+e+f+g+h+              ",
"      i+j+k+l+m+n+o+p+q+r+s+t+u+v+w+x+y+z+A+B+C+'               ",
"            D+E+F+p+G+H+I+4./+N.J+K+-+L+M+N+O+P+Q+*             ",
"                R+S+T+U+q+6.V+t.O.w.-+W+X+Y+Z+`+ @.@J *         ",
"                    * +@@@#@$@%@&@*@=@-@*   * ;@>@,@'@)@!@~@    ",
"                            * * * *             * {@]@^@^@/@(@  ",
"                                                    _@:@{.<@[@  ",
"                                                      G }@|@1@* ",
"                                                          L k+2@",
"                                                              * ",
"                                                                ",
"                                                                ",
"                                                                "};
